<?xml version="1.0" encoding="utf-8"?>
<!-- Generator: Adobe Illustrator 19.1.0, SVG Export Plug-In . SVG Version: 6.00 Build 0)  -->
<svg version="1.1" id="Layer_1" xmlns="http://www.w3.org/2000/svg" xmlns:xlink="http://www.w3.org/1999/xlink" x="0px" y="0px"
	 viewBox="-86.6 330.6 132.4 132.4" style="enable-background:new -86.6 330.6 132.4 132.4;" xml:space="preserve">
<style type="text/css">
	.st0{fill:#CC2A2E;}
	.st1{fill:#FFFFFF;}
</style>
<path class="st1" d="M-20.4,330.6c-36.5,0-66.2,29.6-66.2,66.2c0,36.5,29.6,66.2,66.2,66.2c36.5,0,66.2-29.6,66.2-66.2
	C45.8,360.3,16.1,330.6-20.4,330.6z M24.3,408.4c0,4-2.3,7.5-6.8,8.3c-7.8,1.4-24.2,2.2-37.9,2.2s-30.1-0.8-37.9-2.2
	c-4.5-0.8-6.8-4.3-6.8-8.3c0-8.6,0-17.2,0-25.8c0-4,3.1-7.7,6.8-8.3c2.3-0.4,7.7-0.8,11.9-0.8c1.6,0,2.9,1.2,2.9,3.1v18.1
	c8.1,0,15.1-0.5,23.2-0.5s15.1,0.5,23.2,0.5v-18.1c0-1.9,1.3-3.1,2.9-3.1c4.2,0,9.6,0.4,11.9,0.8c3.8,0.6,6.8,4.3,6.8,8.3
	C24.3,391.2,24.3,399.8,24.3,408.4z"/>
</svg>
