<?xml version="1.0" encoding="utf-8"?>
<!-- Generator: Adobe Illustrator 19.1.0, SVG Export Plug-In . SVG Version: 6.00 Build 0)  -->
<svg version="1.1" id="Layer_1" xmlns="http://www.w3.org/2000/svg" xmlns:xlink="http://www.w3.org/1999/xlink" x="0px" y="0px"
	 viewBox="0 0 153 152" style="enable-background:new 0 0 153 152;" xml:space="preserve">
<style type="text/css">
	.st0{fill:#FFFFFF;}
</style>
<path class="st0" d="M77.8,10.1c-36.5,0-66.2,29.6-66.2,66.2c0,36.5,29.6,66.2,66.2,66.2c36.5,0,66.2-29.6,66.2-66.2
	C144,39.7,114.3,10.1,77.8,10.1z M122.5,87.9c0,4-2.3,7.5-6.8,8.3c-7.8,1.4-24.2,2.2-37.9,2.2c-13.7,0-30.1-0.8-37.9-2.2
	c-4.5-0.8-6.8-4.3-6.8-8.3c0-8.6,0-17.2,0-25.8c0-4,3.1-7.7,6.8-8.3c2.3-0.4,7.7-0.8,11.9-0.8c1.6,0,2.9,1.2,2.9,3.1
	c0,0,0,18.1,0,18.1c8.1,0,15.1-0.5,23.2-0.5c8.1,0,15.1,0.5,23.2,0.5c0,0,0-18.1,0-18.1c0-1.9,1.3-3.1,2.9-3.1
	c4.2,0,9.6,0.4,11.9,0.8c3.8,0.6,6.8,4.3,6.8,8.3C122.5,70.6,122.5,79.3,122.5,87.9z"/>
</svg>
