<?xml version="1.0" encoding="utf-8"?>
<!-- Generator: Adobe Illustrator 19.1.0, SVG Export Plug-In . SVG Version: 6.00 Build 0)  -->
<svg version="1.1" id="Layer_1" xmlns="http://www.w3.org/2000/svg" xmlns:xlink="http://www.w3.org/1999/xlink" x="0px" y="0px"
	 viewBox="-199.1 602.7 373 157.7" style="enable-background:new -199.1 602.7 373 157.7;" xml:space="preserve">
<style type="text/css">
	.st0{fill:#CC2A2E;}
	.st1{enable-background:new    ;}
</style>
<path class="st0" d="M-14.1,603.5c-28.7,0-52,23.3-52,52s23.3,52,52,52s52-23.3,52-52C37.9,626.8,14.6,603.5-14.1,603.5z M21,664.6
	c0,3.1-1.8,5.9-5.3,6.5c-6.1,1.1-19,1.7-29.8,1.7s-23.6-0.6-29.8-1.7c-3.5-0.6-5.3-3.4-5.3-6.5c0-6.8,0-13.5,0-20.3
	c0-3.1,2.4-6,5.3-6.5c1.8-0.3,6-0.6,9.3-0.6c1.3,0,2.3,0.9,2.3,2.4v14.2c6.4,0,11.9-0.4,18.2-0.4c6.4,0,11.9,0.4,18.2,0.4v-14.2
	c0-1.5,1-2.4,2.3-2.4c3.3,0,7.5,0.3,9.3,0.6c3,0.5,5.3,3.4,5.3,6.5C21,651.1,21,657.9,21,664.6z"/>
<g class="st1">
	<path d="M-198.4,743c0-8.7,5.7-16.5,16.5-16.5c4.2,0,7.1,0.9,9.6,2.5l-3,4.9c-1.8-1.2-3.7-1.9-6.7-1.9c-6,0-9.2,4.8-9.2,10.7
		c0,6.1,3.1,11.1,9.3,11.1c3.5,0,5.6-1.2,7.2-2.4l2.8,4.8c-1.6,1.5-5.5,3.4-10.1,3.4C-192.9,759.6-198.4,751.7-198.4,743z"/>
	<path d="M-169.6,747.4c0-6,3.5-12.3,11.7-12.3s11.9,6.1,11.9,12.1c0,5.9-3.6,12.4-11.8,12.4C-166.1,759.6-169.6,753.4-169.6,747.4z
		 M-152.9,747.4c0-4.4-1.5-7.6-5.2-7.6c-3.6,0-4.8,3-4.8,7.4c0,4.4,1.4,7.5,5,7.5C-154.2,754.7-152.9,751.8-152.9,747.4z"/>
	<path d="M-141.8,752v-16.4h6.4v15.1c0,2.4,0.8,3.6,3.1,3.6c2.4,0,4.3-2.4,4.8-2.9v-15.7h6.4v16.7c0,3,0.3,5.3,0.6,6.7h-6.3
		c-0.2-0.6-0.4-2.2-0.5-3.1c-1.2,1.6-3.6,3.7-7.5,3.7C-139.9,759.6-141.8,756.3-141.8,752z"/>
	<path d="M-116.5,747.3c0-7.9,5.2-12.3,12.3-12.3c3.8,0,6,1.2,7.2,1.9l-2.1,4.4c-1.1-0.7-2.5-1.4-4.9-1.4c-3.7,0-5.7,2.9-5.7,7.2
		s1.9,7.5,5.9,7.5c2.7,0,4.3-1,5-1.4l2,4.3c-1.1,0.7-3.3,2.1-7.5,2.1C-111.9,759.6-116.5,754.6-116.5,747.3z"/>
	<path d="M-92.9,724.4h6.4v14c1.2-1.3,3.5-3.4,7.3-3.4c5.1,0,7,3.3,7,7.6V759h-6.4v-15.1c0-2.4-0.8-3.6-3.1-3.6
		c-2.5,0-4.4,2.3-4.8,2.9V759h-6.4V724.4z"/>
	<path d="M-66.3,757.7v-33.3h6.4v13c1.2-1.2,3.3-2.4,5.7-2.4c5.9,0,9.9,4,9.9,12.1c0,8-5.4,12.4-12.4,12.4
		C-61.4,759.6-64.7,758.5-66.3,757.7z M-51,747.1c0-4.4-1.5-7.1-4.9-7.1c-1.7,0-3.2,1-3.9,1.8v12.2c0.7,0.3,1.7,0.5,3.2,0.5
		C-53.1,754.6-51,751.9-51,747.1z"/>
	<path d="M-41.1,753c0-6.1,6.3-8.3,12.5-8.3h0.8v-1.3c0-2.3-1-3.3-3.8-3.3c-2.5,0-4.6,1.1-6,2.2l-2.8-3.9c1.9-1.7,5-3.4,9.5-3.4
		c6.4,0,9.4,2.4,9.4,8.6v8.4c0,3.2,0.3,5.4,0.7,6.9h-6.3c-0.2-0.6-0.3-1.8-0.4-2.5c-1.2,1.5-3.6,3.1-6.6,3.1
		C-38.1,759.6-41.1,757.2-41.1,753z M-27.9,752.9v-4.2h-0.8c-3.7,0-6.3,1.1-6.3,3.8c0,1.7,1.4,2.4,2.8,2.4
		C-30.2,754.9-28.9,754-27.9,752.9z"/>
	<path d="M-17.4,757.4l2.2-4.5c0.9,0.6,3.2,1.9,5.8,1.9c2.4,0,3.8-0.7,3.8-2.1c0-1.6-2.6-2-5.9-3.6c-3.3-1.5-5.2-3.4-5.2-6.9
		c0-4.4,3.5-7.2,8.7-7.2c4,0,6.4,1.2,7.5,1.9l-2.3,4.4c-0.9-0.6-2.7-1.5-5-1.5c-2.3,0-3.2,0.8-3.2,2.1c0,1.6,2.1,2,4.8,3.1
		c3.7,1.5,6.4,3.2,6.4,7.2c0,4.9-3.5,7.5-9.3,7.5C-13.3,759.6-15.9,758.3-17.4,757.4z"/>
	<path d="M3.2,747.2c0-7.4,5.1-12.1,11.6-12.1c6.6,0,10.2,4.2,10.2,11.5c0,0.7,0,1.4-0.1,2.2H10.1c0.3,3.5,2.1,6,6,6
		c3.2,0,4.9-1.1,6.1-1.6l2.1,4.1c-1.5,0.9-3.9,2.3-8.7,2.3C7.6,759.6,3.2,754.6,3.2,747.2z M18.7,744.5c0-2.6-1.1-4.8-4-4.8
		c-2.7,0-4.2,1.8-4.7,4.8H18.7z"/>
	<path d="M37.5,756.4l2.9-4.7c0.7,0.5,3.2,2.4,6.9,2.4c3.2,0,5.1-1.6,5.1-3.7c0-2.8-3.4-3.6-7.2-5.5c-3.9-1.9-6.9-4.4-6.9-9.6
		c0-5.5,4.6-8.9,10.3-8.9c5.2,0,8,1.7,9.4,2.7l-2.7,4.8c-1.1-0.7-3.5-2-6.2-2c-2.6,0-4.3,1.2-4.3,3.3c0,2.5,2.5,3.3,5.9,4.8
		c4.2,1.9,8.2,4.1,8.2,10c0,5.8-4.4,9.5-11.5,9.5C42.2,759.6,38.9,757.6,37.5,756.4z"/>
	<path d="M62.2,747.2c0-7.4,5.1-12.1,11.6-12.1c6.6,0,10.2,4.2,10.2,11.5c0,0.7,0,1.4-0.1,2.2H69.1c0.3,3.5,2.1,6,6,6
		c3.2,0,4.9-1.1,6.1-1.6l2.1,4.1c-1.5,0.9-3.9,2.3-8.7,2.3C66.6,759.6,62.2,754.6,62.2,747.2z M77.7,744.5c0-2.6-1.1-4.8-4-4.8
		c-2.7,0-4.2,1.8-4.7,4.8H77.7z"/>
	<path d="M88.8,735.6h6.4v3.2c1-1.7,2.9-3.7,5.9-3.7c1.7,0,2.6,0.3,3.2,0.6l-1.5,5.6c-0.4-0.2-1.1-0.5-2.4-0.5
		c-2.8,0-4.5,2.5-5.1,3.6V759h-6.4V735.6z"/>
	<path d="M105.5,735.6h6.9l4.8,15.5h0.1l5-15.5h6.5l-8.6,23.4h-6L105.5,735.6z"/>
	<path d="M130.2,747.2c0-7.4,5.1-12.1,11.6-12.1c6.6,0,10.2,4.2,10.2,11.5c0,0.7,0,1.4-0.1,2.2H137c0.3,3.5,2.1,6,6,6
		c3.2,0,4.9-1.1,6.1-1.6l2.1,4.1c-1.5,0.9-3.9,2.3-8.7,2.3C134.6,759.6,130.2,754.6,130.2,747.2z M145.7,744.5c0-2.6-1.1-4.8-4-4.8
		c-2.7,0-4.2,1.8-4.7,4.8H145.7z"/>
	<path d="M156.8,735.6h6.4v3.2c1-1.7,2.9-3.7,5.9-3.7c1.7,0,2.6,0.3,3.2,0.6l-1.5,5.6c-0.4-0.2-1.1-0.5-2.4-0.5
		c-2.8,0-4.5,2.5-5.1,3.6V759h-6.4V735.6z"/>
</g>
</svg>
