<svg version="1" xmlns="http://www.w3.org/2000/svg" width="933.333" height="933.333" viewBox="0 0 700.000000 700.000000"><path d="M329.8.5c-.2.1-4.1.5-8.8.9-19.8 1.3-42.3 5.3-63.6 11.1-9.9 2.7-32.5 10.4-39.1 13.2-2.1.9-4 1.7-4.3 1.8-8.2 2.4-37 17.8-56 30-7.3 4.6-31 22.1-32 23.6-.3.3-2.5 2.3-5 4.4-12.6 10.3-34.5 33.4-47.2 49.6C67 143.8 53 164.4 49 171.5c-11.5 20.4-16.8 31-22.7 45.5C18 237.2 10 263.9 6.4 283.5c-.9 4.9-1.7 9.7-1.9 10.5-.2.9-.6 4.3-1 7.5-.4 3.3-.9 6.9-1.1 8-1.8 9.6-2.5 57-1 71.5 1.3 13.8 3.2 26 6.1 41 2 10.2 9.9 38.7 12.4 44.5.5 1.1 1.4 3.6 2.1 5.5.7 1.9 1.9 4.9 2.6 6.7.8 1.7 1.4 3.4 1.4 3.7 0 1 5.9 13.8 11.7 25.1 22.3 44 51.2 80.1 90.9 113.5 25.9 21.8 69.2 46.6 99.5 57.1 3.5 1.2 8.9 3.1 11.9 4.2 11.6 4.1 29.7 8.6 48.3 12.2 4.3.8 10.6 1.8 14 2.1 3.4.3 6.5.8 6.8.9 1.5 1 22.7 2 40.9 2 18.8 0 34.1-.8 43-2.1 14.4-2.1 29.5-4.8 34.5-6.1 3.3-.8 6.7-1.6 7.5-1.8 7.9-1.6 37.8-11.4 47.5-15.5 1.7-.8 3.2-1.4 3.5-1.5 5.2-1.8 29.3-13.7 37.2-18.5 3.7-2.2 7-4 7.3-4 .3 0 1.1-.5 1.8-1 .7-.6 6.4-4.5 12.7-8.7 10.8-7.1 25-17.8 33-24.8 11.9-10.4 29.4-27.9 36.5-36.5 2.1-2.5 4.1-4.7 4.4-5 .4-.3 4.3-5.2 8.7-11 33.6-44.3 55-91.8 65.8-146.1 1.4-7 2.8-15.5 3.2-19 .3-3.5.8-6.7 1-7 2.4-4.1 2.3-77.9-.1-81.8-.1-.4-.6-3.3-.9-6.6-.3-3.3-.8-6.9-1-8-.2-1.1-1.1-6.1-2.1-11-10.1-54.2-34.9-107.6-71.2-153-8.9-11.2-33.6-36.6-45.3-46.7C563.9 72.6 533.7 51 531 51c-.5 0-1-.5-1-1 0-.6-.5-1-1-1-.6 0-2.9-1.2-5.2-2.6-6.6-4.2-29-15.1-41.6-20.3-21.7-8.9-49.9-17.2-69.9-20.5-4.7-.8-23.5-3.4-29.3-4.1-5.5-.7-52.6-1.6-53.2-1zM218.3 228.1c4.3 1.8 6.2 3.7 8 8.1 1.3 3.1 1.5 11 1.6 51.5 0 26.3 0 48.6.1 49.6 0 1.9 6.8 1.9 68 .1 30.5-1 79.2-1 109.5 0 13.2.4 33.8.9 45.7 1.2l21.7.5.3-50.8c.3-57.2 0-54.8 8.1-59.4 3.9-2.1 4.5-2.2 23.6-1.6 10.8.4 21.2.9 23.1 1.2 1.9.2 6.4.7 10 1 3.6.3 9.2.9 12.5 1.5 16.2 2.6 30.2 15.5 35.1 32 1.3 4.6 1.6 10.1 1.4 33-.1 15.1-.3 48.9-.5 75-.2 45.4-.3 47.8-2.4 54.7-5.3 17.7-18.3 27.4-41.1 30.7-15.6 2.2-29.1 3.7-47 5.1-4.1.3-9.7.8-12.5 1-4.5.4-21 1.3-38 2-31.7 1.4-55.9 1.9-95.5 1.9-46.1 0-83.8-.9-115.1-2.8-5.2-.4-12.8-.8-16.9-1.1-4.1-.2-10.4-.7-14-1-18.8-1.6-18.2-1.5-30.5-3-16.6-2-20.8-2.6-27-4.2-17.5-4.3-29.6-17.6-32.1-35-.8-5.7-.9-147.7-.1-151.3.3-1.4.8-3.5 1.1-4.7.9-4.4 5.9-13.2 10.2-18.1 7.5-8.6 16.2-13.1 27.9-14.6 10.1-1.3 12.6-1.6 21-2.2 5-.3 9.1-.7 9.2-.8.1-.1 7.2-.3 15.8-.5 11.2-.2 16.6.1 18.8 1z"/></svg>